<svg viewBox="0 0 24 24" fill="#667eea" xmlns="http://www.w3.org/2000/svg" id="Blender-Fill--Streamline-Remix-Fill" height="24" width="24">
  <desc>
    Blender Fill Streamline Icon: https://streamlinehq.com
  </desc>
  <path d="M7.78934 15.7143c-0.14361 -0.4556 -0.23935 -1.0389 -0.24462 -1.3391 -0.00528 -0.299 0.06044 -0.7972 0.06044 -0.7972l-4.50868 3.69c-0.78741 0.6361 -1.84663 0.6349 -2.344801 -0.0036 -0.490868 -0.628 -0.238943 -1.6203 0.540361 -2.217l8.29282 -6.36467 -4.62835 0.00608c-0.78499 -0.00284 -1.29776 -0.53184 -1.15009 -1.16956 0.14361 -0.62596 0.86936 -1.12129 1.62432 -1.1221l9.14596 -0.00974 -2.9947 -2.43892c-0.4665 -0.38255 -0.4065 -0.98904 0.1176 -1.35577 0.5185 -0.36267 1.3112 -0.36389 1.7826 -0.00202l7.2036 5.53138 -0.0017 0.00122c0.712 0.55212 1.3108 1.2081 1.7753 1.9574 0.5079 0.8154 0.8377 1.7099 0.9732 2.6632 0.0694 0.4893 0.0852 0.9789 0.0475 1.4678 -0.0386 0.4961 -0.1347 0.9906 -0.2868 1.4779 -0.3027 0.9642 -0.8138 1.8579 -1.5258 2.6474 -0.7298 0.8085 -1.6292 1.4604 -2.6689 1.9257 -1.0929 0.4877 -2.2771 0.7392 -3.5051 0.7408 -1.23 0.002 -2.4141 -0.2446 -3.507 -0.7286 -1.0398 -0.4608 -1.94 -1.1099 -2.67101 -1.918 -0.71236 -0.7862 -1.22433 -1.6783 -1.52615 -2.6426Zm7.70416 1.815c1.4073 -0.0028 2.7079 -0.5396 3.6369 -1.486 0.454 -0.4625 0.7862 -0.9923 0.9923 -1.5582 0.2016 -0.555 0.2799 -1.1428 0.2288 -1.7359 -0.0511 -0.5821 -0.2227 -1.1338 -0.4998 -1.6344 -0.271 -0.4917 -0.6438 -0.9351 -1.1038 -1.30997 -0.9039 -0.73347 -2.0528 -1.12819 -3.2564 -1.12657 -1.2024 0.00163 -2.3521 0.4 -3.2551 1.1359 -0.4609 0.37644 -0.8341 0.82144 -1.1051 1.31394 -0.2759 0.501 -0.4487 1.0548 -0.4978 1.6353 -0.0519 0.5939 0.0264 1.1826 0.228 1.7371 0.2057 0.5643 0.5392 1.0941 0.9931 1.5546 0.929 0.9448 2.2296 1.4766 3.6389 1.4742Zm-2.0184 -6.6257c0.5557 -0.4706 1.3038 -0.7583 2.12 -0.7583 0.8154 0 1.5635 0.2877 2.1197 0.7583 0.5663 0.4791 0.942 1.1549 0.9854 1.9212 0.043 0.7883 -0.2739 1.5205 -0.8296 2.0633 -0.5668 0.5521 -1.3728 0.8986 -2.2755 0.8986 -0.9026 0 -1.7103 -0.3465 -2.2766 -0.8986 -0.5562 -0.5428 -0.8722 -1.275 -0.8288 -2.0625 0.043 -0.7671 0.4186 -1.4429 0.9854 -1.922Zm0 0c-0.5668 0.4791 -0.9424 1.1549 -0.9854 1.922 -0.0434 0.7875 0.2726 1.5197 0.8288 2.0625 0.5663 0.5521 1.374 0.8986 2.2766 0.8986 0.9027 0 1.7087 -0.3465 2.2755 -0.8986 0.5557 -0.5428 0.8726 -1.275 0.8296 -2.0633 -0.0434 -0.7663 -0.4191 -1.4421 -0.9854 -1.9212 -0.5562 -0.4706 -1.3043 -0.7583 -2.1197 -0.7583 -0.8162 0 -1.5643 0.2877 -2.12 0.7583Zm-5.68576 4.8107c-0.14361 -0.4556 -0.23935 -1.0389 -0.24462 -1.3391 -0.00528 -0.299 0.06044 -0.7972 0.06044 -0.7972l-4.50868 3.69c-0.78741 0.6361 -1.84663 0.6349 -2.344801 -0.0036 -0.490868 -0.628 -0.238943 -1.6203 0.540361 -2.217l8.29282 -6.36467 -4.62835 0.00608c-0.78499 -0.00284 -1.29776 -0.53184 -1.15009 -1.16956 0.14361 -0.62596 0.86936 -1.12129 1.62432 -1.1221l9.14596 -0.00974 -2.9947 -2.43892c-0.4665 -0.38255 -0.4065 -0.98904 0.1176 -1.35577 0.5185 -0.36267 1.3112 -0.36389 1.7826 -0.00202l7.2036 5.53138 -0.0017 0.00122c0.712 0.55212 1.3108 1.2081 1.7753 1.9574 0.5079 0.8154 0.8377 1.7099 0.9732 2.6632 0.0694 0.4893 0.0852 0.9789 0.0475 1.4678 -0.0386 0.4961 -0.1347 0.9906 -0.2868 1.4779 -0.3027 0.9642 -0.8138 1.858 -1.5258 2.6474 -0.7298 0.8085 -1.6292 1.4604 -2.6689 1.9257 -1.0929 0.4877 -2.2771 0.7392 -3.5051 0.7408 -1.23 0.002 -2.4141 -0.2446 -3.507 -0.7286 -1.0398 -0.4608 -1.94 -1.1099 -2.67101 -1.918 -0.71236 -0.7862 -1.22433 -1.6783 -1.52615 -2.6426Zm7.70416 1.815c1.4073 -0.0028 2.7079 -0.5396 3.6369 -1.486 0.454 -0.4625 0.7862 -0.9923 0.9923 -1.5582 0.2016 -0.555 0.2799 -1.1428 0.2288 -1.7359 -0.0511 -0.5821 -0.2227 -1.1338 -0.4998 -1.6344 -0.271 -0.4917 -0.6438 -0.9351 -1.1038 -1.30997 -0.9039 -0.73347 -2.0528 -1.12819 -3.2564 -1.12657 -1.2024 0.00163 -2.3521 0.4 -3.2551 1.1359 -0.4609 0.37644 -0.8341 0.82144 -1.1051 1.31394 -0.2759 0.501 -0.4487 1.0548 -0.4978 1.6353 -0.0519 0.5939 0.0264 1.1826 0.228 1.7371 0.2057 0.5643 0.5392 1.0941 0.9931 1.5546 0.929 0.9448 2.2296 1.4766 3.6389 1.4742Z" stroke-width="1"></path>
</svg>